# xmcd
#
# Track frame offsets:
#	150
#	15752
#	28121
#	39993
#	55299
#	72154
#	91805
#	104804
#	118339
#	131729
#	145184
#
# Disc length: 2158 seconds
#
# Revision: 0
# Processed by: cddbd v1.5.2PL0 Copyright (c) Steve Scherf et al.
# Submitted via: EasyCDDAExtractor 12.0.1.1
#
DISCID=96086c0b
DTITLE=Bobby B - Easy Does It
DYEAR=2009
DGENRE=Christian Country
TTITLE0=Easy Does It
TTITLE1=Bobby
TTITLE2=First Things First
TTITLE3=I'm Alive Again
TTITLE4=But For The Grace of God
TTITLE5=Humble Me
TTITLE6=Every Now And Then
TTITLE7=Clean And Serene
TTITLE8=Feed The Children
TTITLE9=Suppertime
TTITLE10=Lonely Is The Night
EXTD=
EXTT0=
EXTT1=
EXTT2=
EXTT3=
EXTT4=
EXTT5=
EXTT6=
EXTT7=
EXTT8=
EXTT9=
EXTT10=
PLAYORDER=
